<svg width="14" height="14" viewBox="0 0 14 14" fill="none" xmlns="http://www.w3.org/2000/svg">
<g id="Group">
<path id="Vector" d="M9.78605 0.333252H4.21391C3.16913 0.333252 2.33331 1.14133 2.33331 2.08409V5.92248C2.33331 8.1447 4.07461 10.0302 6.30346 10.3669V12.3198H4.21391C3.796 12.3198 3.51739 12.5891 3.51739 12.9932C3.51739 13.3972 3.796 13.6666 4.21391 13.6666H9.78605C10.204 13.6666 10.4826 13.3972 10.4826 12.9932C10.4826 12.5891 10.204 12.3198 9.78605 12.3198H7.6965V10.3669C9.92535 10.0302 11.6666 8.21204 11.6666 5.92248V2.08409C11.6666 1.14133 10.8308 0.333252 9.78605 0.333252ZM10.2736 5.92248C10.2736 7.67332 8.81092 9.08746 6.99998 9.08746C5.18903 9.08746 3.72635 7.67332 3.72635 5.92248V2.08409C3.72635 1.88207 3.9353 1.68005 4.21391 1.68005H9.78605C9.995 1.68005 10.2736 1.88207 10.2736 2.08409V5.92248Z" fill="white"/>
<path id="Vector_2" d="M0.99998 1C0.59998 1 0.333313 1.27706 0.333313 1.69264V5.64069C0.333313 6.05628 0.59998 6.33333 0.99998 6.33333C1.39998 6.33333 1.66665 6.05628 1.66665 5.64069V1.69264C1.66665 1.34632 1.39998 1 0.99998 1Z" fill="white"/>
<path id="Vector_3" d="M13 1C12.6 1 12.3333 1.27706 12.3333 1.69264V5.64069C12.3333 6.05628 12.6 6.33333 13 6.33333C13.4 6.33333 13.6666 6.05628 13.6666 5.64069V1.69264C13.6666 1.34632 13.4 1 13 1Z" fill="white"/>
</g>
</svg>
