<svg width="26" height="20" viewBox="0 0 26 20" fill="none" xmlns="http://www.w3.org/2000/svg">
<g id="Group">
<path id="Vector" d="M22.066 1.668C20.4005 0.888773 18.6197 0.322462 16.758 0C16.5293 0.413385 16.2622 0.969397 16.078 1.4117C14.0989 1.11407 12.138 1.11407 10.1953 1.4117C10.0111 0.969397 9.73795 0.413385 9.50726 0C7.64348 0.322462 5.86065 0.890853 4.19519 1.67213C0.835938 6.74839 -0.0746999 11.6986 0.38062 16.5785C2.60865 18.2423 4.76788 19.253 6.89067 19.9144C7.4148 19.1931 7.88225 18.4263 8.28495 17.6181C7.518 17.3267 6.78342 16.9671 6.08933 16.5495C6.27347 16.4131 6.45359 16.2705 6.6276 16.1237C10.8611 18.1038 15.4608 18.1038 19.6437 16.1237C19.8197 16.2705 19.9998 16.4131 20.1819 16.5495C19.4858 16.9691 18.7492 17.3287 17.9823 17.6202C18.385 18.4263 18.8504 19.1952 19.3766 19.9165C21.5014 19.2551 23.6626 18.2444 25.8907 16.5785C26.4249 10.9214 24.978 6.01671 22.066 1.668ZM8.8617 13.5774C7.59086 13.5774 6.54867 12.391 6.54867 10.9462C6.54867 9.50147 7.56861 8.31302 8.8617 8.31302C10.1548 8.31302 11.197 9.49939 11.1747 10.9462C11.1767 12.391 10.1548 13.5774 8.8617 13.5774ZM17.4096 13.5774C16.1387 13.5774 15.0965 12.391 15.0965 10.9462C15.0965 9.50147 16.1164 8.31302 17.4096 8.31302C18.7027 8.31302 19.7449 9.49939 19.7226 10.9462C19.7226 12.391 18.7027 13.5774 17.4096 13.5774Z" fill="white"/>
</g>
</svg>
