<svg width="14" height="11" viewBox="0 0 14 11" fill="none" xmlns="http://www.w3.org/2000/svg">
<g id="Group">
<path id="Vector" d="M11.1024 1.334C10.2697 0.944386 9.37932 0.661231 8.44843 0.5C8.33411 0.706693 8.20055 0.984698 8.10846 1.20585C7.11891 1.05703 6.13845 1.05703 5.1671 1.20585C5.07503 0.984698 4.93843 0.706693 4.82309 0.5C3.8912 0.661231 2.99978 0.945427 2.16705 1.33606C0.487427 3.8742 0.0321081 6.34929 0.259768 8.78923C1.37378 9.62115 2.4534 10.1265 3.51479 10.4572C3.77686 10.0965 4.01058 9.71313 4.21193 9.30906C3.82846 9.16335 3.46117 8.98353 3.11412 8.77477C3.20619 8.70656 3.29625 8.63525 3.38326 8.56187C5.49998 9.55192 7.79986 9.55192 9.8913 8.56187C9.97933 8.63525 10.0694 8.70656 10.1604 8.77477C9.81236 8.98455 9.44407 9.16437 9.06059 9.3101C9.26194 9.71313 9.49466 10.0976 9.75773 10.4582C10.8202 10.1275 11.9008 9.62219 13.0148 8.78923C13.2819 5.96071 12.5585 3.50835 11.1024 1.334ZM4.50031 7.28869C3.86489 7.28869 3.34379 6.69549 3.34379 5.97311C3.34379 5.25074 3.85376 4.65651 4.50031 4.65651C5.14687 4.65651 5.66795 5.2497 5.65682 5.97311C5.65783 6.69549 5.14687 7.28869 4.50031 7.28869ZM8.77425 7.28869C8.13883 7.28869 7.61773 6.69549 7.61773 5.97311C7.61773 5.25074 8.12768 4.65651 8.77425 4.65651C9.42079 4.65651 9.94189 5.2497 9.93076 5.97311C9.93076 6.69549 9.42079 7.28869 8.77425 7.28869Z" fill="#747DA4"/>
</g>
</svg>
