<svg width="24" height="25" viewBox="0 0 24 25" fill="none" xmlns="http://www.w3.org/2000/svg">
<g id="Feed">
<path id="Vector (Stroke)" fill-rule="evenodd" clip-rule="evenodd" d="M5.36364 4.5C4.63099 4.5 4 5.14133 4 5.83333V8.07692C4 8.81446 4.59229 9.42851 5.40276 9.5H7.63636C8.36901 9.5 9 8.85867 9 8.16667V5.83333C9 5.09001 8.40932 4.5 7.72727 4.5H5.36364ZM2 5.83333C2 4.01251 3.55083 2.5 5.36364 2.5H7.72727C9.59068 2.5 11 4.06383 11 5.83333V8.16667C11 9.98749 9.44917 11.5 7.63636 11.5H5.36364C5.34017 11.5 5.31671 11.4992 5.2933 11.4975C3.57427 11.3763 2 10.0223 2 8.07692V5.83333ZM16.3636 4.5C15.631 4.5 15 5.14133 15 5.83333V8.16667C15 8.85867 15.631 9.5 16.3636 9.5H18.6364C19.369 9.5 20 8.85867 20 8.16667V5.83333C20 5.09001 19.4093 4.5 18.7273 4.5H16.3636ZM13 5.83333C13 4.01251 14.5508 2.5 16.3636 2.5H18.7273C20.5907 2.5 22 4.06383 22 5.83333V8.16667C22 9.98749 20.4492 11.5 18.6364 11.5H16.3636C14.5508 11.5 13 9.98749 13 8.16667V5.83333ZM5.36364 15.5C4.63099 15.5 4 16.1413 4 16.8333V19.1667C4 19.7931 4.56786 20.4266 5.40268 20.5H7.63636C8.36901 20.5 9 19.8587 9 19.1667V16.8333C9 16.09 8.40932 15.5 7.72727 15.5H5.36364ZM2 16.8333C2 15.0125 3.55083 13.5 5.36364 13.5H7.72727C9.59068 13.5 11 15.0638 11 16.8333V19.1667C11 20.9875 9.44917 22.5 7.63636 22.5H5.36364C5.34017 22.5 5.31671 22.4992 5.2933 22.4975C3.59974 22.3781 2 21.0453 2 19.1667V16.8333ZM16.3636 15.5C15.631 15.5 15 16.1413 15 16.8333V19.1667C15 19.8587 15.631 20.5 16.3636 20.5H18.6364C19.369 20.5 20 19.8587 20 19.1667V16.8333C20 16.09 19.4093 15.5 18.7273 15.5H16.3636ZM13 16.8333C13 15.0125 14.5508 13.5 16.3636 13.5H18.7273C20.5907 13.5 22 15.0638 22 16.8333V19.1667C22 20.9875 20.4492 22.5 18.6364 22.5H16.3636C14.5508 22.5 13 20.9875 13 19.1667V16.8333Z" fill="white"/>
</g>
</svg>
