<svg width="16" height="10" viewBox="0 0 16 10" fill="none" xmlns="http://www.w3.org/2000/svg">
<g id="Group">
<path id="Vector" d="M14.5333 3.03333C13.2 1.83333 11 0.5 8 0.5C5 0.5 2.8 1.83333 1.46667 3.03333C0.933333 3.43333 0.666666 4.1 0.666666 4.76667C0.666666 5.43333 0.933333 6.1 1.46667 6.5C2.8 7.63333 5 9.03333 8 9.03333C11 9.03333 13.2 7.7 14.5333 6.5C15.0667 6.1 15.3333 5.43333 15.3333 4.76667C15.3333 4.1 15.0667 3.43333 14.5333 3.03333ZM13.6667 5.5C12.5333 6.5 10.6 7.7 8 7.7C5.4 7.7 3.46667 6.5 2.33333 5.5C2.13333 5.3 2 5.03333 2 4.76667C2 4.5 2.13333 4.23333 2.33333 4.03333C3.46667 3.03333 5.4 1.83333 8 1.83333C10.6 1.83333 12.5333 3.03333 13.6667 4.03333C13.8667 4.16667 14 4.43333 14 4.76667C14 5.03333 13.8667 5.3 13.6667 5.5Z" fill="white"/>
<path id="Vector_2" d="M8.00001 6.30007C8.84684 6.30007 9.53334 5.61357 9.53334 4.76673C9.53334 3.9199 8.84684 3.2334 8.00001 3.2334C7.15317 3.2334 6.46667 3.9199 6.46667 4.76673C6.46667 5.61357 7.15317 6.30007 8.00001 6.30007Z" fill="white"/>
</g>
</svg>
