<svg width="10" height="11" viewBox="0 0 10 11" fill="none" xmlns="http://www.w3.org/2000/svg">
<g id="Location" clip-path="url(#clip0_0_482)">
<path id="Vector (Stroke)" fill-rule="evenodd" clip-rule="evenodd" d="M4.60809 0.930796C6.83075 0.74543 8.70306 2.41773 8.7499 4.57396L8.75 4.58301C8.75 5.33672 8.51391 6.04113 8.09545 6.64605L8.09128 6.65196L5.97644 9.59845C5.97224 9.6043 5.9679 9.61004 5.9634 9.61566C5.47728 10.2238 4.52122 10.2612 4.05411 9.59663L1.93857 6.64917C1.38711 5.86733 1.09733 4.88024 1.33167 3.83559C1.62063 2.26919 2.98642 1.11608 4.59537 0.932053C4.5996 0.931569 4.60384 0.93115 4.60809 0.930796ZM4.68372 1.76072C3.39595 1.91062 2.36181 2.82737 2.14995 3.99349C2.14887 3.99945 2.14765 4.00538 2.14631 4.01129C1.96974 4.78879 2.17705 5.54079 2.61859 6.16747L4.73537 9.11666C4.84817 9.27793 5.12951 9.31569 5.30671 9.10241L7.4121 6.16908C7.73793 5.69694 7.91573 5.15898 7.91666 4.58753C7.87809 2.92992 6.43747 1.61792 4.68372 1.76072Z" fill="#747DA4"/>
<path id="Vector (Stroke)_2" fill-rule="evenodd" clip-rule="evenodd" d="M5 3.79159C4.56277 3.79159 4.20833 4.14603 4.20833 4.58325C4.20833 5.02048 4.56277 5.37492 5 5.37492C5.43723 5.37492 5.79167 5.02048 5.79167 4.58325C5.79167 4.14603 5.43723 3.79159 5 3.79159ZM3.375 4.58325C3.375 3.68579 4.10254 2.95825 5 2.95825C5.89746 2.95825 6.625 3.68579 6.625 4.58325C6.625 5.48071 5.89746 6.20825 5 6.20825C4.10254 6.20825 3.375 5.48071 3.375 4.58325Z" fill="#747DA4"/>
<path id="Vector (Stroke)_3" fill-rule="evenodd" clip-rule="evenodd" d="M5 3.79159C4.56277 3.79159 4.20833 4.14603 4.20833 4.58325C4.20833 5.02048 4.56277 5.37492 5 5.37492C5.43723 5.37492 5.79167 5.02048 5.79167 4.58325C5.79167 4.14603 5.43723 3.79159 5 3.79159ZM3.375 4.58325C3.375 3.68579 4.10254 2.95825 5 2.95825C5.89746 2.95825 6.625 3.68579 6.625 4.58325C6.625 5.48071 5.89746 6.20825 5 6.20825C4.10254 6.20825 3.375 5.48071 3.375 4.58325Z" fill="#747DA4"/>
<path id="Vector (Stroke)_4" fill-rule="evenodd" clip-rule="evenodd" d="M5 3.79159C4.56277 3.79159 4.20833 4.14603 4.20833 4.58325C4.20833 5.02048 4.56277 5.37492 5 5.37492C5.43723 5.37492 5.79167 5.02048 5.79167 4.58325C5.79167 4.14603 5.43723 3.79159 5 3.79159ZM3.375 4.58325C3.375 3.68579 4.10254 2.95825 5 2.95825C5.89746 2.95825 6.625 3.68579 6.625 4.58325C6.625 5.48071 5.89746 6.20825 5 6.20825C4.10254 6.20825 3.375 5.48071 3.375 4.58325Z" fill="#747DA4"/>
</g>
<defs>
<clipPath id="clip0_0_482">
<rect width="10" height="10" fill="white" transform="translate(0 0.5)"/>
</clipPath>
</defs>
</svg>
