<svg width="114" height="31" viewBox="0 0 114 31" fill="none" xmlns="http://www.w3.org/2000/svg">
<g id="Group" filter="url(#filter0_d_841_123)">
<path id="Vector" d="M9.26578 6.16451C14.3676 6.16451 18.5316 10.291 18.5316 15.3928C18.5316 20.4946 14.3676 24.6586 9.26578 24.6586C7.65271 24.6586 6.11466 24.2459 4.8017 23.5332V30.5106L0 28.4849V15.4303C0 10.291 4.16397 6.16451 9.26578 6.16451ZM55.4071 0.5V6.16451H59.8712V10.9662H55.4071V15.5053C55.4071 17.9812 57.3953 19.9694 59.8712 19.9694V24.7711C54.8444 24.7711 50.7555 20.7572 50.6054 15.7679V2.56323L55.4071 0.5ZM29.523 6.16451V10.9662C27.0471 10.9662 25.0589 12.9544 25.0589 15.4303V24.7711H20.2572V15.1677L20.2629 15.0183C20.4891 10.0985 24.5464 6.16451 29.523 6.16451ZM39.5015 6.16451C44.6033 6.16451 48.7297 10.291 48.7673 15.4303C48.7673 20.5321 44.6033 24.6961 39.5015 24.6961C34.3997 24.6961 30.2357 20.5321 30.2357 15.4303C30.2357 10.3285 34.3997 6.16451 39.5015 6.16451ZM70.2999 6.16451C75.4017 6.16451 79.5657 10.291 79.5657 15.4303C79.5657 20.5321 75.4017 24.6961 70.2999 24.6961C65.1981 24.6961 61.0341 20.5321 61.0341 15.4303C61.0341 10.3285 65.1981 6.16451 70.2999 6.16451ZM104.512 6.16451C109.614 6.16451 113.778 10.291 113.778 15.4303C113.778 20.5321 109.614 24.6961 104.512 24.6961C99.4102 24.6961 95.2462 20.5321 95.2462 15.4303C95.2462 10.3285 99.4102 6.16451 104.512 6.16451ZM93.3706 6.16451V24.6961H88.5689V6.16451H93.3706ZM83.4295 18.4689C85.1551 18.4689 86.5431 19.8569 86.5431 21.5825C86.5431 23.3081 85.1551 24.6961 83.4295 24.6961C81.7039 24.6961 80.3159 23.3081 80.3159 21.5825C80.3159 19.8569 81.7039 18.4689 83.4295 18.4689ZM39.5015 10.9662C37.0256 10.9662 35.0374 12.9544 35.0374 15.4303C35.0374 17.9062 37.0256 19.8944 39.5015 19.8944C41.9398 19.8944 43.9281 17.8686 43.9656 15.4303C43.9656 12.9544 41.9774 10.9662 39.5015 10.9662ZM70.2999 10.9662C67.824 10.9662 65.8358 12.9544 65.8358 15.4303C65.8358 17.9062 67.824 19.8944 70.2999 19.8944C72.7383 19.8944 74.764 17.8686 74.764 15.4303C74.764 12.9544 72.7758 10.9662 70.2999 10.9662ZM9.26578 10.9662C6.7899 10.9662 4.8017 12.9544 4.8017 15.4303C4.8017 17.9062 6.7899 19.8944 9.26578 19.8944C11.7041 19.8944 13.7299 17.8686 13.7299 15.4303C13.7299 12.9544 11.7417 10.9662 9.26578 10.9662ZM104.512 10.9662C102.036 10.9662 100.048 12.9544 100.048 15.4303C100.048 17.9062 102.036 19.8944 104.512 19.8944C106.95 19.8944 108.976 17.8686 108.976 15.4303C108.976 12.9544 106.988 10.9662 104.512 10.9662Z" fill="white"/>
</g>
<defs>
<filter id="filter0_d_841_123" x="-8" y="-3.5" width="129.778" height="46.0107" filterUnits="userSpaceOnUse" color-interpolation-filters="sRGB">
<feFlood flood-opacity="0" result="BackgroundImageFix"/>
<feColorMatrix in="SourceAlpha" type="matrix" values="0 0 0 0 0 0 0 0 0 0 0 0 0 0 0 0 0 0 127 0" result="hardAlpha"/>
<feOffset dy="4"/>
<feGaussianBlur stdDeviation="4"/>
<feComposite in2="hardAlpha" operator="out"/>
<feColorMatrix type="matrix" values="0 0 0 0 0 0 0 0 0 0 0 0 0 0 0 0 0 0 0.15 0"/>
<feBlend mode="normal" in2="BackgroundImageFix" result="effect1_dropShadow_841_123"/>
<feBlend mode="normal" in="SourceGraphic" in2="effect1_dropShadow_841_123" result="shape"/>
</filter>
</defs>
</svg>
