<svg width="14" height="14" viewBox="0 0 14 14" fill="none" xmlns="http://www.w3.org/2000/svg">
<g id="Group">
<path id="Vector" d="M6.99998 0.333252C3.33331 0.333252 0.333313 3.33325 0.333313 6.99992C0.333313 10.6666 3.33331 13.6666 6.99998 13.6666C10.6666 13.6666 13.6666 10.6666 13.6666 6.99992C13.6666 3.33325 10.6666 0.333252 6.99998 0.333252ZM6.99998 12.3333C4.06665 12.3333 1.66665 9.93325 1.66665 6.99992C1.66665 4.06659 4.06665 1.66659 6.99998 1.66659C9.93331 1.66659 12.3333 4.06659 12.3333 6.99992C12.3333 9.93325 9.93331 12.3333 6.99998 12.3333Z" fill="white"/>
<path id="Vector_2" d="M7.86662 6.3332H6.13328C5.79995 6.3332 5.53328 6.06654 5.53328 5.7332C5.53328 5.39987 5.79995 5.1332 6.13328 5.1332H8.59995C8.99995 5.1332 9.26662 4.86654 9.26662 4.46654C9.26662 4.06654 8.99995 3.79987 8.59995 3.79987H7.66662V3.19987C7.66662 2.79987 7.39995 2.5332 6.99995 2.5332C6.59995 2.5332 6.33328 2.79987 6.33328 3.19987V3.79987H6.13328C5.06662 3.79987 4.19995 4.66654 4.19995 5.7332C4.19995 6.79987 5.06662 7.66654 6.13328 7.66654H7.79995C8.13328 7.66654 8.39995 7.9332 8.39995 8.26654C8.39995 8.59987 8.13328 8.86654 7.79995 8.86654H5.33328C4.93328 8.86654 4.66662 9.1332 4.66662 9.5332C4.66662 9.9332 4.93328 10.1999 5.33328 10.1999H6.33328V10.7999C6.33328 11.1999 6.59995 11.4665 6.99995 11.4665C7.39995 11.4665 7.66662 11.1999 7.66662 10.7999V10.1999H7.86662C8.93328 10.1999 9.79995 9.3332 9.79995 8.26654C9.79995 7.19987 8.93328 6.3332 7.86662 6.3332Z" fill="white"/>
</g>
</svg>
