<svg width="12" height="11" viewBox="0 0 12 11" fill="none" xmlns="http://www.w3.org/2000/svg">
<g id="twitterLogo">
<path id="Vector" d="M11.4871 1.70128C11.1139 1.87016 10.7215 1.98775 10.3197 2.05116C10.5075 2.0173 10.784 1.66177 10.894 1.51787C11.0612 1.3008 11.1886 1.053 11.2698 0.78705C11.2698 0.767299 11.2885 0.739082 11.2698 0.724973C11.2603 0.71954 11.2497 0.716693 11.2389 0.716693C11.2281 0.716693 11.2175 0.71954 11.208 0.724973C10.7717 0.973401 10.3073 1.16301 9.82585 1.28931C9.80907 1.2947 9.79121 1.29518 9.77419 1.29071C9.75716 1.28623 9.74162 1.27697 9.72923 1.26391C9.69175 1.217 9.65141 1.1727 9.60846 1.1313C9.41209 0.94632 9.18929 0.794925 8.94823 0.682648C8.62283 0.542291 8.27134 0.481506 7.92032 0.504882C7.57972 0.527497 7.24719 0.623544 6.9434 0.78705C6.64426 0.959433 6.38134 1.19362 6.17046 1.47554C5.94864 1.76571 5.78849 2.10246 5.70079 2.46313C5.62847 2.8062 5.62027 3.16079 5.67663 3.50715C5.67663 3.56641 5.67663 3.57487 5.62832 3.56641C3.71475 3.27013 2.1447 2.55625 0.861827 1.02407C0.805467 0.956351 0.775944 0.956351 0.730319 1.02407C0.172081 1.91572 0.443148 3.32657 1.14095 4.02352C1.23488 4.11664 1.3315 4.20693 1.43348 4.29158C1.11355 4.2677 0.801427 4.17655 0.515612 4.02352C0.461935 3.98684 0.432413 4.00659 0.429729 4.07431C0.422121 4.1682 0.422121 4.26259 0.429729 4.35648C0.485729 4.80642 0.654387 5.23266 0.918456 5.5916C1.18253 5.95054 1.53253 6.2293 1.93268 6.39938C2.03022 6.44331 2.13187 6.4764 2.23595 6.49814C1.93977 6.55944 1.636 6.56898 1.33687 6.52635C1.27245 6.51225 1.2483 6.54893 1.27245 6.61383C1.66698 7.7425 2.52312 8.08674 3.15114 8.27862C3.23702 8.29273 3.32291 8.29273 3.41952 8.3153C3.41952 8.3153 3.41952 8.3153 3.40342 8.33223C3.21824 8.68776 2.46945 8.92761 2.12591 9.05176C1.49888 9.28856 0.830349 9.37906 0.166713 9.317C0.0620433 9.30007 0.0378888 9.30289 0.0110504 9.317C-0.015788 9.33111 0.0110504 9.36214 0.0405726 9.39036C0.174765 9.48348 0.308956 9.56531 0.448516 9.64431C0.863986 9.88256 1.30322 10.0718 1.75823 10.2087C4.11464 10.8915 6.76627 10.3892 8.53492 8.54103C9.92515 7.09069 10.4136 5.09012 10.4136 3.08672C10.4136 3.01054 10.5022 2.96539 10.5532 2.92589C10.9049 2.63776 11.215 2.29749 11.4737 1.91572C11.5185 1.85882 11.5415 1.78636 11.5381 1.71256C11.5381 1.67024 11.5381 1.6787 11.4871 1.70128Z" fill="#747DA4"/>
</g>
</svg>
