<svg width="16" height="16" viewBox="0 0 16 16" fill="none" xmlns="http://www.w3.org/2000/svg">
<g id="user-icon">
<path id="Vector" d="M13.7861 11.6054C13.118 9.97271 11.8485 8.74822 10.3117 8.13597C11.1803 7.4557 11.7148 6.36727 11.7148 5.2108C11.7148 3.03393 10.0445 1.33325 7.97323 1.33325C5.90197 1.33325 4.23161 3.03393 4.23161 5.14278C4.23161 6.29924 4.76613 7.38767 5.63472 8.06795C4.09798 8.68019 2.8285 9.90468 2.16036 11.5373C1.8931 12.2176 1.95991 13.0339 2.3608 13.6462C2.76169 14.3264 3.49665 14.6666 4.29842 14.6666H11.7148C12.5166 14.6666 13.1848 14.2584 13.6525 13.6462C14.0534 13.0339 14.1202 12.2856 13.7861 11.6054ZM5.5679 5.14278C5.5679 3.78223 6.63693 2.6938 7.97323 2.6938C9.30952 2.6938 10.3786 3.78223 10.3786 5.14278C10.3786 6.50332 9.30952 7.59175 7.97323 7.59175C6.63693 7.59175 5.5679 6.50332 5.5679 5.14278ZM12.5166 12.9659C12.3162 13.238 12.0489 13.4421 11.7148 13.4421H4.23161C3.89754 13.4421 3.63028 13.306 3.42983 12.9659C3.22939 12.6938 3.22939 12.4217 3.36302 12.1496C4.16479 10.1768 5.96879 8.9523 7.97323 8.9523C9.97767 8.9523 11.7817 10.1768 12.5834 12.0816C12.7171 12.3537 12.6503 12.6938 12.5166 12.9659Z" fill="white"/>
</g>
</svg>
